<?xml version="1.0" encoding="iso-8859-1"?>
<!-- Generator: Adobe Illustrator 19.0.0, SVG Export Plug-In . SVG Version: 6.00 Build 0)  -->
<svg version="1.1" id="Capa_1" xmlns="http://www.w3.org/2000/svg" xmlns:xlink="http://www.w3.org/1999/xlink" x="0px" y="0px"
	 viewBox="0 0 512.006 512.006" style="enable-background:new 0 0 512.006 512.006;" xml:space="preserve">
<g>
	<g>
		<path d="M192.102,37.58c-20.2-0.4-40.4-0.2-60.5,0c-20.2,0.2-40.4,1.7-60.5,1.9c-2.1,0.1-2.1,3.3,0,3.4
			c20.2,0.2,40.3,1.7,60.5,1.9c20.2,0.2,40.4,0.4,60.5,0C196.702,44.68,196.702,37.68,192.102,37.58z"/>
	</g>
</g>
<g>
	<g>
		<path d="M192.102,63.78c-20.2-0.4-40.4-0.2-60.5,0c-20.2,0.2-40.4,1.7-60.5,1.9c-2.1,0.1-2.1,3.4,0,3.4
			c20.2,0.2,40.3,1.7,60.5,1.9c20.2,0.2,40.4,0.4,60.5,0C196.702,70.88,196.702,63.88,192.102,63.78z"/>
	</g>
</g>
<g>
	<g>
		<path d="M294.202,231.78c-3-13.9-17-23.6-30.9-18.2c-5.9,2.3-10.2,7-12.7,12.6c-2.5,4.4-3.4,9.6-2.7,14.7
			c1.8,13.3,14.6,22.5,27.8,20.2C289.402,258.68,297.102,244.78,294.202,231.78z M284.602,247.18c-10.4,15.4-34.3,3.8-30.5-13.8
			c1.7-8,9.1-14.5,17.5-13.9C284.402,220.48,291.702,236.58,284.602,247.18z"/>
	</g>
</g>
<g>
	<g>
		<path d="M406.702,231.78c-3-13.9-17-23.6-30.9-18.2c-5.9,2.3-10.2,7-12.7,12.6c-2.5,4.4-3.4,9.6-2.7,14.7
			c1.9,13.3,14.7,22.5,27.8,20.2C401.902,258.68,409.602,244.78,406.702,231.78z M397.102,247.18c-10.4,15.4-34.2,3.8-30.5-13.8
			c1.7-8,9.1-14.5,17.5-13.9C396.902,220.48,404.202,236.58,397.102,247.18z"/>
	</g>
</g>
<g>
	<g>
		<path d="M343.302,239.38c-2.4-5.1-7.2-13.8-12.5-16.3c-5-2.3-9,1.6-11.5,5.6c-1.4,2.2-2.7,4.5-4,6.8c-1.3,1.8-2.4,3.7-3.4,5.7
			c-2,4.1-5.1,10.1-1.1,14c3.9,3.7,12.5,3.7,17.5,3.9s13,0.5,16.2-4.3C347.402,250.48,345.302,243.58,343.302,239.38z
			 M338.802,250.58c-1.7,2.8-8.8,1.8-11.4,1.7c-2.5-0.1-4.9-0.4-7.3-0.9c-2.4-0.4-4.5-0.1-4.4-3.2c0-0.7,0.1-1.5,0.4-2.2
			c1.3-2.4,2.5-4.9,3.8-7.3c1.1-1.9,4.5-8.6,7.2-8.6c1.6,0,7,8.5,7.7,9.6C336.002,241.58,340.302,248.08,338.802,250.58z"/>
	</g>
</g>
<g>
	<g>
		<path d="M399.502,281.58c-5.5-12.9-23.9-13.7-35.7-14.4c-12.5-0.7-25.1-0.9-37.6-0.7c-11.4-0.8-22.9-1-34.3-0.5
			c-12.1,0.6-28.6,1.2-37.2,11.1c-7.2,8.3-4.4,19.5,4.1,25.6c10.7,7.7,26.9,8.4,39.6,9.5c15.1,1.3,30.6,1.9,45.9,1.5
			c13.7-0.4,28.9-1.4,41.7-6.9C395.502,302.68,404.102,292.38,399.502,281.58z M274.602,302.08c-1.1-0.3-2.2-0.5-3.3-0.8
			c-4.9-1.4-10.4-3.5-12.9-8.3c-3.2-6.3,1.4-12.1,7-14.6c3.1-1.4,6.5-2.4,10-3.1C275.002,284.18,274.402,293.18,274.602,302.08z
			 M300.302,305.58c-6.3-0.4-12.6-1-18.8-2c0,0,0,0,0-0.1c0.4-9.6-0.4-19.4-0.8-29c6.7-0.8,13.7-0.8,20-1
			C299.802,284.08,299.802,294.98,300.302,305.58z M323.502,306.48c-4.9-0.1-9.7-0.3-14.6-0.5c-0.8,0-1.6-0.1-2.4-0.1
			c0.1-10.8-0.3-21.8-1.7-32.5c6.6,0,13.2,0.1,19.7,0.4C324.202,284.68,323.702,295.58,323.502,306.48z M349.402,306.18
			c-1.4,0.1-2.7,0.1-4.1,0.2c-4.9,0.2-9.9,0.2-14.8,0.2c-0.2-10.8-0.5-21.7-0.8-32.6c7,0.3,14.1,0.8,21.1,1.2
			C350.202,285.48,349.202,295.88,349.402,306.18z M371.102,303.68c-4.9,1-9.9,1.7-14.9,2.1c-0.3-10.1-1.3-20.2-1.7-30.4
			c6.3,0.5,12.7,0.8,19,1.1C372.502,285.48,371.802,294.58,371.102,303.68z M393.102,288.68c-0.4,6.5-6.7,10.4-12.2,12.3
			c-0.8,0.3-1.6,0.5-2.4,0.8c-0.3-8.3-0.3-16.6-0.1-24.9c2.3,0.3,4.5,0.7,6.7,1.6C389.202,280.18,393.402,283.88,393.102,288.68z"/>
	</g>
</g>
<g>
	<g>
		<path d="M270.102,421.88c-9.2,2.5-16.6,11.1-18.1,20.5c-0.7,2.6-0.8,5.4-0.4,8.4c1.9,12.5,13.7,20.9,26.2,18.4
			C304.902,463.68,299.802,413.78,270.102,421.88z M286.502,451.78c-3.7,11.2-18.2,14.1-25.4,4.3c-4.8-6.6-4.2-15.1,0.2-21.3
			c3-3.4,7.2-5.7,12-6.1C286.002,427.68,289.802,441.88,286.502,451.78z"/>
	</g>
</g>
<g>
	<g>
		<path d="M274.502,436.48c-1,1.7-2,3.3-3,5c-0.9,1.6-2.1,3.2-2,5.2c0,1.2,1.2,2.4,2.4,1.9c2-0.8,3-2.3,4.2-4c1.3-1.6,2.5-3.3,3.7-5
			C282.102,436.48,276.602,433.08,274.502,436.48z"/>
	</g>
</g>
<g>
	<g>
		<path d="M347.702,442.38c-1.5-9.4-8.9-18-18.1-20.5c-29.7-8.1-34.8,41.8-7.7,47.3c12.5,2.5,24.3-5.9,26.2-18.4
			C348.602,447.78,348.402,444.98,347.702,442.38z M338.602,456.08c-7.1,9.8-21.7,6.9-25.4-4.3c-3.3-9.9,0.5-24.1,13.2-23.1
			c4.8,0.4,9,2.7,12,6.1C342.702,440.98,343.302,449.48,338.602,456.08z"/>
	</g>
</g>
<g>
	<g>
		<path d="M328.102,441.68c-1-1.8-2-3.5-3-5.1c-2.1-3.4-7.5,0-5.3,3.1c1.2,1.7,2.4,3.4,3.7,5c1.3,1.6,2.2,3.2,4.2,4
			c1.2,0.5,2.4-0.7,2.4-1.8C330.102,444.88,329.002,443.38,328.102,441.68z"/>
	</g>
</g>
<g>
	<g>
		<path d="M327.602,475.98c-10.7-0.5-21.6-1.2-32.3-0.4c-6-0.2-12-0.4-17.9-0.6c-4.6-0.1-9.3-0.3-14-0.3c-3.5,0-7.5-0.2-10.7,1.4
			c-4.6,2.3-7.5,9-3.1,12.9c2,1.8,4.6,2,7.2,2.1c5.3,0.3,10.7,0.2,16,0.4c10.3,0.3,20.7,0.6,31,1c10,0.3,20.2,1.3,30.1,0.8
			c5.4-0.2,12-3.2,11.9-9.6C345.702,474.88,333.502,476.28,327.602,475.98z M338.302,486.88c-1.7,1.6-5.4,1.1-7.5,1.1
			c-18-0.2-36-0.8-54.1-1.3c-4.7-0.1-9.3-0.3-14-0.4c-1.6,0-4.5,0.3-6-0.2c-2.2,0.3-3-1.1-2.4-4.2c1-0.5,2-0.8,3.1-0.8
			c3.9-0.5,8.1,0.1,12,0.2c4.7,0.1,9.3,0.1,14,0.1c14.7-0.1,29.4,0,44.1-0.2c2.1,0.2,4.2,0.3,6.2,0.5
			C334.902,481.78,343.502,481.98,338.302,486.88z"/>
	</g>
</g>
<g>
	<g>
		<path d="M247.702,64.08c-5.4-24.8-25.4-43.2-48.1-52.9c-26.3-11.1-57.2-12.4-85.4-10.4c-17.9,1.3-36.5,5.9-51.5,15.7
			c-19.2,10.6-34.8,28-40.4,49.6c-5.9,22.5,0.4,45.7,16.8,62.2c17.4,17.5,41.7,24.9,65.8,27.4c6.9,0.7,14.3,0,21.1,1.3
			c5.7,1,9.8,8,13.6,12c8.5,9.1,18.1,17.8,30.7,20.2c4.1,0.7,7.5-2.6,6.6-6.9c-1.6-7.8-2.4-15.7-2.4-23.6c0-2.5-0.7-6.5,1.4-8
			c1-0.7,3.4-0.8,4.6-1.1c2.2-0.6,4.4-1.3,6.6-2c12.2-4.3,23.6-10.9,33.8-18.8c10.1-7.7,19-16.9,24-28.7
			C249.702,88.78,250.302,76.08,247.702,64.08z M231.902,103.38c-6.5,10.4-17,18.1-27.2,24.5c-5.9,3.7-12.2,7.1-18.8,9.5
			c-5.4,2-12.8,2.2-17.4,5.8c-5.1,4-4.4,11.7-4.4,17.5c0,5,0.3,9.9,0.8,14.9c-6.2-3.3-11.4-8.3-16.3-13.6
			c-6.9-7.5-12.4-16-23.5-16.7c-23.2-1.5-46.2-2.4-66.6-15.1c-20.6-12.8-33.5-36.9-26.8-61c10.3-36.8,44.2-56.6,80.6-58.8
			c26.4-1.6,55.1,0.4,79.7,10.5c21.2,8.7,40.2,25.4,45.2,48.6C239.702,80.98,238.202,93.38,231.902,103.38z"/>
	</g>
</g>
<g>
	<g>
		<path d="M491.302,435.98c-1-14.9-3-30.7-8.6-44.7c-5-12.6-14.3-21.1-27.2-25.3c-13.3-4.3-28.2-4.4-42-5.2
			c-11.7-0.7-23.5-1.1-35.3-1.4c-0.8-7.2-2.2-14.3-3.1-21.4c8.9-0.7,17.7-1.7,26.4-3c11.7-1.7,22.4-5.5,29.2-15.8
			c6.8-10.3,8.5-23.5,9.9-35.5c1.7-15,1.7-30.3,1-45.4c-0.6-13.9-1.2-28.2-3.5-41.9c-2.2-13.2-10.3-22.8-23.2-26.4
			c-11.7-3.3-24.5-2.8-36.7-2.6c-6.9-12.6-20-21.4-34.1-25.6c0.4-4.8-0.5-9.8-0.9-14.5c-0.4-5.3-0.7-10.6-0.9-15.9
			c-0.5-9.9-1-19.8-1.2-29.6c9.1-7.1,13.9-21.4,10.6-31.6c-2.2-6.9-7.4-11.8-14.4-13.7c-6.6-1.8-15.9-2.3-22,1
			c-5.8,3.1-10.2,8.4-12.5,14.5c-1.9,3.6-2.8,7.7-2.2,12.2c0.5,3.6,2,7,4,9.9c0.2,0.3,0.4,0.6,0.6,0.9l0.1,0.1
			c0.2,0.3,0.4,0.5,0.6,0.8c1.4,1.6,2.9,3.1,4.6,4.4c-1.4,9.4-0.1,19.9,0.2,29.3c0.3,10.3,0.1,20.9,1.2,31.2
			c-6.1,1.4-12,3.8-17.4,6.9c-9.3,5.4-16.1,12.1-21,21.3c-16.4,1-32.6,4.3-45.3,14.4c-21.8,17.4-16.7,46.5-14.8,70.9
			c1.2,15.3,2.4,30.7,3.6,46c0.9,11.6,2.6,23,13.8,29.1c11.6,6.4,26.7,7.6,39.6,9.1c1.8,0.2,3.6,0.4,5.4,0.6
			c-0.6,6.4,0.2,13.5,0.3,19.8c-4.4,0.1-8.8,0.2-13.3,0.4c-17.6,0.7-35.9,1.6-53,5.9c-14.5,3.7-31.3,11-36.3,26.4
			c-2.7,8.1-2.2,17.3-2.5,25.7c-0.3,9.4-0.6,18.9-0.9,28.3c-0.3,10.4-0.6,20.8-0.9,31.3c-0.7,4.9-1.5,9.8-2.2,14.7
			c-0.9,5.7-0.8,12.5,4.9,15.8c5.6,3.2,14.6,1.6,20.8,1.7c8.7,0.1,17.5,0.2,26.2,0.3c16.8,0.2,33.6,0.4,50.4,0.7
			c33.6,0.5,67.1,0.9,100.7,1.4c32.7,0.4,65.8,1.4,98.4-1.2c5.8-0.5,12-1.5,16.3-5.9c5.5-5.5,5.3-13.6,5.8-20.8
			C491.802,467.78,492.402,451.88,491.302,435.98z M308.702,61.78c-0.4-5.3,2.2-10.6,6.5-13.7c6.5-4.8,20-4.5,25.2,2.3
			c3.7,4.7,2.8,11.4,0.3,16.4c-2.9,5.9-7.3,11.1-14.4,10.5C318.102,76.58,309.402,70.68,308.702,61.78z M333.502,128.28
			c0.1,3.7-0.1,7.6,0.3,11.3c-2.8-0.4-5.7-0.5-8.4-0.5c-1,0-2,0.1-3,0.1c-0.1-9.9-1.3-19.9-2-29.7c-0.4-5.3-0.8-10.5-1.2-15.8
			c-0.3-3.1-0.4-6.2-0.8-9.2c4.6,1.7,9.5,2.3,14.3,1.3c0.7-0.1,1.3-0.3,1.9-0.5c-0.6,9-1.1,18-1.2,27.1
			C333.402,117.78,333.402,122.98,333.502,128.28z M324.702,150.58c8.6-0.3,17.2,1.5,24.8,5.5c5.7,3,10.1,6.8,13.8,11.4
			c-19.9,0-39.8,0.4-59.7,1.3c-6.6-0.1-13.4-0.3-20.3-0.1C295.202,158.98,309.402,151.18,324.702,150.58z M256.002,324.68
			c-5.4-1.1-11.1-2.1-16.3-4.1c-5.9-2.2-9-6-10.2-12.1c-2.5-12.4-2.5-25.6-3.7-38.2c-1.2-12.9-2.6-25.9-3.4-38.8
			c-0.8-11.7-0.6-24.6,7.2-34.1c7.7-9.6,20-13.9,31.8-15.9c14.8-2.5,30.2-2.8,45.1-3.3c30.5-0.9,60.9-0.4,91.4,0.9
			c0.8,0,1.3-0.2,1.8-0.6c7,0.7,14.3,2.2,19.7,6.6c4,3.3,5.6,8.1,6.4,13.1c1,6.7,1.2,13.6,1.7,20.3c1,13.2,2,26.4,2.1,39.6
			c0.1,12.9-0.4,26-2.6,38.7c-1.8,10.5-5.3,20.9-16.1,24.9c-11.6,4.3-25.3,4.6-37.6,5.3c-12.9,0.8-25.8,1.2-38.7,1.6
			C308.302,329.58,281.802,329.78,256.002,324.68z M367.002,346.88c-14-0.7-28.2-0.1-42.2-0.1c-13.2,0-26.6-0.6-39.8,0.3
			c0,0,0,0,0-0.1c-0.2-2.4-0.3-4.9-0.6-7.3c9.9,0.6,19.8,0.8,29.7,0.6c17.7-0.2,35.6-0.6,53.4-1.7
			C367.302,341.38,367.102,344.18,367.002,346.88z M367.202,359.28c-1.3,0-2.5-0.1-3.8-0.1c-25.7-0.4-51.4-0.8-77.1-0.5
			c-0.2-2.2-0.5-4.5-0.7-6.7c13,1.1,26.3,0.9,39.3,1.2c14,0.4,28.1,1.3,42.1,1C367.002,355.88,367.002,357.58,367.202,359.28z
			 M398.402,499.58c-3.4,0-6.9,0-10.3-0.1c-8-0.1-16-0.2-24-0.3c0.1-3.8,0.2-7.6,0.3-11.5c11.6,1.2,23.2,2.6,34.9,2.8
			C398.902,493.58,398.702,496.58,398.402,499.58z M399.702,484.38c-11.7-1-23.6-0.5-35.3,0c0.1-6,0.2-12,0.4-18
			c11.7,2.1,24,2.2,35.9,2.7C400.402,474.18,400.102,479.28,399.702,484.38z M401.402,454.68c-0.1,2.7-0.2,5.3-0.4,8
			c-11.8-1.3-24.5-2.1-36.2,0.2c0-1.3,0.1-2.5,0.1-3.8c0.1-4.7,0.2-9.4,0.3-14.1c12,1.3,24.3,2.4,36.4,2.1
			C401.602,449.58,401.502,452.18,401.402,454.68z M401.902,441.78c-12.1-0.8-24.4-0.7-36.5-1.1c0-1.8,0.1-3.6,0.1-5.4
			c0-1.1-0.4-5.4,0.2-5.9c0.8-0.6,2.6-0.2,3.6-0.3c4-0.2,8-0.3,12.1-0.3c4.8,0,9.6,0.5,14.4,0c1.8-0.2,3.8-0.1,5.1,1.1
			C402.402,431.28,403.002,441.88,401.902,441.78z M420.102,460.48c-0.4,13-0.5,26.1-1.3,39.1c-4.3,0-8.6,0.1-12.9,0.1
			c1.3-18.6,2.4-37.2,2.7-55.9c0.1-4.6,0.5-9.4,0.1-13.9c-0.2-2.2-0.5-4.3-2.5-5.7c-2.6-1.8-6.9-1.3-9.8-1.4
			c-4.7-0.2-9.4-0.3-14.1-0.3s-9.4,0.1-14.1,0.4c-2.7,0.2-5.9,0.1-7.8,2.4c-1.8,2.2-1.4,5.6-1.5,8.2c-0.2,4.6-0.3,9.2-0.4,13.8
			c-0.5,17.3-0.2,34.7,0.8,52c-20.6-0.3-41.1-0.6-61.7-0.8c-21.4-0.3-42.8-0.6-64.2-0.9c2-20,1.2-40.1,3-60.1
			c0.6-5.9,1.1-11.9,2.4-17.7c1.4-5.9,4.5-9,10.3-10.6c10.7-2.9,23-2.2,34-2.2c24.1-0.2,48.3,0.4,72.4,1.2c12.2,0.4,24.4,1,36.6,2
			c5.9,0.5,11.8,1,17.7,1.7c2.4,0.3,5.2,0.1,7.4,1c3.5,1.4,3.3,4.1,3.5,7.5C421.702,433.48,420.502,447.08,420.102,460.48z
			 M479.102,456.88c-0.2,7-0.5,14-1,21c-0.3,4.6,0.8,16-4,18.4c-5.2,2.6-13,1.9-18.6,2.2c-7.3,0.4-14.5,0.7-21.8,0.8
			c-2.1,0.1-4.2,0.1-6.3,0.1c0-26,3-52.3,1.4-78.3c-0.3-4.4-0.3-9.7-3.7-13s-8.7-3.3-13.1-3.8c-13.8-1.5-27.6-2.4-41.4-2.9
			c-27-1.1-54.2-1.4-81.2-1.3c-12.6,0.1-25.8-0.4-38.3,1.5c-9.7,1.5-16.8,6.3-19.1,16.1c-6.2,25.9-2.8,53.3-2.6,79.8
			c-11.4-0.2-22.7-0.3-34.1-0.5c-4-0.1-8.1-0.1-12.1-0.2c-0.5,0-3.4,0.3-4.7,0.2c0.5-0.5,0.4-3.1,0.4-3.5c0.9-7.9,1.8-15.8,2.3-23.7
			c0.5-10.1,0.6-20.1,0.2-30.1c0.7-10.1,1.3-20.3,1.9-30.4c0.3-6.2,0.2-13.1,3.9-18.4s10-8.5,15.9-10.9c13.3-5.3,28-6.7,42.2-7.8
			c30-2.3,60.2-1.7,90.2-1.5c30.1,0.2,60.3,0.9,90.3,3.3c11.6,0.9,24.5,1.4,34.6,7.8c10.9,6.8,13.9,20.8,16.1,32.6
			C478.902,428.28,479.402,442.68,479.102,456.88z"/>
	</g>
</g>
<g>
	<g>
		<path d="M192.102,89.98c-20.2-0.4-40.4-0.2-60.5,0c-20.2,0.2-40.4,1.7-60.5,1.9c-2.1,0.1-2.1,3.4,0,3.4
			c20.2,0.2,40.3,1.7,60.5,1.9c20.2,0.2,40.4,0.4,60.5,0C196.702,97.08,196.702,90.08,192.102,89.98z"/>
	</g>
</g>
<g>
	<g>
		<path d="M192.202,116.28c-20.2-0.4-40.4-0.2-60.5,0c-20.2,0.2-40.4,1.7-60.5,1.9c-2.1,0-2.1,3.3,0,3.3c20.2,0.2,40.3,1.7,60.5,1.9
			c20.2,0.2,40.4,0.4,60.5,0C196.802,123.28,196.802,116.38,192.202,116.28z"/>
	</g>
</g>
<g>
</g>
<g>
</g>
<g>
</g>
<g>
</g>
<g>
</g>
<g>
</g>
<g>
</g>
<g>
</g>
<g>
</g>
<g>
</g>
<g>
</g>
<g>
</g>
<g>
</g>
<g>
</g>
<g>
</g>
</svg>
