<?xml version="1.0" encoding="iso-8859-1"?>
<!-- Generator: Adobe Illustrator 16.0.0, SVG Export Plug-In . SVG Version: 6.00 Build 0)  -->
<!DOCTYPE svg PUBLIC "-//W3C//DTD SVG 1.1//EN" "http://www.w3.org/Graphics/SVG/1.1/DTD/svg11.dtd">
<svg version="1.1" id="Capa_1" xmlns="http://www.w3.org/2000/svg" xmlns:xlink="http://www.w3.org/1999/xlink" x="0px" y="0px"
	 width="924.001px" height="924.001px" viewBox="0 0 924.001 924.001" style="enable-background:new 0 0 924.001 924.001;"
	 xml:space="preserve">
<g>
	<path d="M841.36,187.993L736.009,82.64c-6.51-6.51-16.622-7.735-24.499-2.968l-54.938,33.252
		c-26.704-14.917-55.296-26.858-85.328-35.375l-15.326-62.326C553.719,6.284,545.702,0,536.496,0h-148.99
		c-9.206,0-17.223,6.284-19.421,15.224L352.759,77.55c-30.032,8.517-58.624,20.458-85.328,35.375l-54.938-33.252
		c-7.876-4.767-17.989-3.542-24.499,2.968L82.642,187.993c-6.51,6.51-7.735,16.622-2.968,24.498l33.252,54.938
		c-14.917,26.704-26.857,55.296-35.375,85.328l-62.326,15.326c-8.94,2.199-15.224,10.216-15.224,19.422v148.99
		c0,9.206,6.284,17.223,15.224,19.421l62.326,15.326c8.517,30.032,20.458,58.624,35.375,85.328l-33.252,54.938
		c-4.767,7.876-3.542,17.988,2.968,24.498L187.993,841.36c6.51,6.509,16.622,7.734,24.499,2.968l54.938-33.252
		c26.704,14.917,55.295,26.856,85.328,35.375l15.326,62.326c2.198,8.939,10.215,15.224,19.421,15.224h148.99
		c9.206,0,17.223-6.284,19.421-15.224l15.326-62.326c30.032-8.518,58.624-20.458,85.328-35.375l54.938,33.252
		c7.876,4.767,17.989,3.542,24.499-2.968l105.353-105.353c6.51-6.51,7.734-16.622,2.968-24.498l-33.252-54.938
		c14.917-26.704,26.856-55.296,35.375-85.328l62.326-15.326C917.716,553.72,924,545.703,924,536.497v-148.99
		c0-9.206-6.284-17.223-15.224-19.421L846.45,352.76c-8.518-30.032-20.458-58.624-35.375-85.328l33.252-54.938
		C849.095,204.615,847.87,194.502,841.36,187.993z M462.001,670.481c-115.141,0-208.48-93.341-208.48-208.481
		c0-115.141,93.34-208.481,208.48-208.481S670.482,346.859,670.482,462C670.482,577.14,577.142,670.481,462.001,670.481z"/>
</g>
<g>
</g>
<g>
</g>
<g>
</g>
<g>
</g>
<g>
</g>
<g>
</g>
<g>
</g>
<g>
</g>
<g>
</g>
<g>
</g>
<g>
</g>
<g>
</g>
<g>
</g>
<g>
</g>
<g>
</g>
</svg>
