<?xml version="1.0" encoding="iso-8859-1"?>
<!-- Generator: Adobe Illustrator 19.0.0, SVG Export Plug-In . SVG Version: 6.00 Build 0)  -->
<svg version="1.1" id="Capa_1" xmlns="http://www.w3.org/2000/svg" xmlns:xlink="http://www.w3.org/1999/xlink" x="0px" y="0px"
	 viewBox="0 0 512 512" style="enable-background:new 0 0 512 512;" xml:space="preserve">
<g>
	<g>
		<circle cx="317" cy="106" r="15"/>
	</g>
</g>
<g>
	<g>
		<circle cx="377" cy="106" r="15"/>
	</g>
</g>
<g>
	<g>
		<circle cx="437" cy="106" r="15"/>
	</g>
</g>
<g>
	<g>
		<path d="M377,0c-74.44,0-135,47.55-135,106c0,23.81,10.6,46.87,30,65.59V226c0,5.53,3.04,10.61,7.92,13.23
			c4.88,2.6,10.8,2.32,15.4-0.75l47.03-31.35c12.11,2.6,23.5,3.87,34.65,3.87c73.13,0,135-45.45,135-105C512,47.55,451.44,0,377,0z
			 M377,181c-10.67,0-21.77-1.47-33.96-4.5c-4.09-1.02-8.43-0.27-11.94,2.07l-29.1,19.4v-33.01c0-4.37-1.91-8.53-5.23-11.38
			C285.47,143.88,272,127.76,272,106c0-41.48,47.79-76,105-76c57.21,0,105,34.52,105,76C482,147.24,434.45,181,377,181z"/>
	</g>
</g>
<g>
	<g>
		<path d="M188.44,314.1C211.17,297.75,226,271.08,226,241c0-49.63-40.37-90-90-90c-49.74,0-91,40.23-91,90
			c0,29.31,14.27,56.08,38.16,73.11C34.34,334.62,0,382.65,0,438.5V497c0,8.28,6.72,15,15,15h241c8.28,0,15-6.72,15-15v-58.5
			C271,382.65,236.91,334.61,188.44,314.1z M75,241c0-33.08,27.36-60,61-60c33.08,0,60,26.92,60,60s-26.92,60-60,60
			C102.36,301,75,274.08,75,241z M241,482H30v-43.5c0-57.9,47.55-105,106-105c57.9,0,105,47.1,105,105V482z"/>
	</g>
</g>
<g>
</g>
<g>
</g>
<g>
</g>
<g>
</g>
<g>
</g>
<g>
</g>
<g>
</g>
<g>
</g>
<g>
</g>
<g>
</g>
<g>
</g>
<g>
</g>
<g>
</g>
<g>
</g>
<g>
</g>
</svg>
